<?xml version="1.0" encoding="UTF-8"?>
<svg id="Layer_1" xmlns="http://www.w3.org/2000/svg" xmlns:xlink="http://www.w3.org/1999/xlink" version="1.1" viewBox="0 0 1080 1080">
  <!-- Generator: Adobe Illustrator 29.3.1, SVG Export Plug-In . SVG Version: 2.1.0 Build 151)  -->
  <defs>
    <style>
      .st0 {
        fill: url(#linear-gradient2);
      }

      .st1 {
        fill: url(#linear-gradient1);
      }

      .st2 {
        fill: url(#linear-gradient9);
      }

      .st3 {
        fill: url(#linear-gradient3);
      }

      .st4 {
        fill: url(#linear-gradient6);
      }

      .st5 {
        fill: url(#linear-gradient8);
      }

      .st6 {
        fill: url(#linear-gradient7);
      }

      .st7 {
        fill: url(#linear-gradient5);
      }

      .st8 {
        fill: url(#linear-gradient4);
      }

      .st9 {
        fill: url(#linear-gradient12);
      }

      .st10 {
        fill: url(#linear-gradient11);
      }

      .st11 {
        fill: url(#linear-gradient10);
      }

      .st12 {
        letter-spacing: .1em;
      }

      .st12, .st13, .st14, .st15 {
        isolation: isolate;
      }

      .st12, .st14, .st15 {
        font-family: AdelleSansDevanagari-Regular, 'Adelle Sans Devanagari';
        font-size: 100px;
      }

      .st16 {
        fill: url(#linear-gradient);
      }

      .st14 {
        letter-spacing: 0em;
      }

      .st15 {
        letter-spacing: .1em;
      }
    </style>
    <linearGradient id="linear-gradient" x1="95.6" y1="321.1" x2="990" y2="321.1" gradientTransform="translate(0 1082) scale(1 -1)" gradientUnits="userSpaceOnUse">
      <stop offset="0" stop-color="#3acceb"/>
      <stop offset="1" stop-color="#e725c7"/>
    </linearGradient>
    <linearGradient id="linear-gradient1" x1="95.6" y1="321.1" x2="990" y2="321.1" gradientTransform="translate(0 1082) scale(1 -1)" gradientUnits="userSpaceOnUse">
      <stop offset="0" stop-color="#3acceb"/>
      <stop offset="1" stop-color="#e725c7"/>
    </linearGradient>
    <linearGradient id="linear-gradient2" x1="95.6" y1="321.1" x2="990" y2="321.1" gradientTransform="translate(0 1082) scale(1 -1)" gradientUnits="userSpaceOnUse">
      <stop offset="0" stop-color="#3acceb"/>
      <stop offset="1" stop-color="#e725c7"/>
    </linearGradient>
    <linearGradient id="linear-gradient3" x1="95.6" y1="321.1" x2="990" y2="321.1" gradientTransform="translate(0 1082) scale(1 -1)" gradientUnits="userSpaceOnUse">
      <stop offset="0" stop-color="#3acceb"/>
      <stop offset="1" stop-color="#e725c7"/>
    </linearGradient>
    <linearGradient id="linear-gradient4" x1="95.6" y1="321.1" x2="990" y2="321.1" gradientTransform="translate(0 1082) scale(1 -1)" gradientUnits="userSpaceOnUse">
      <stop offset="0" stop-color="#3acceb"/>
      <stop offset="1" stop-color="#e725c7"/>
    </linearGradient>
    <linearGradient id="linear-gradient5" x1="95.6" y1="321.1" x2="990" y2="321.1" gradientTransform="translate(0 1082) scale(1 -1)" gradientUnits="userSpaceOnUse">
      <stop offset="0" stop-color="#3acceb"/>
      <stop offset="1" stop-color="#e725c7"/>
    </linearGradient>
    <linearGradient id="linear-gradient6" x1="95.6" y1="321.2" x2="990" y2="321.2" gradientTransform="translate(0 1082) scale(1 -1)" gradientUnits="userSpaceOnUse">
      <stop offset="0" stop-color="#3acceb"/>
      <stop offset="1" stop-color="#e725c7"/>
    </linearGradient>
    <linearGradient id="linear-gradient7" x1="95.6" y1="321.1" x2="990" y2="321.1" gradientTransform="translate(0 1082) scale(1 -1)" gradientUnits="userSpaceOnUse">
      <stop offset="0" stop-color="#3acceb"/>
      <stop offset="1" stop-color="#e725c7"/>
    </linearGradient>
    <linearGradient id="linear-gradient8" x1="95.6" y1="321.1" x2="990" y2="321.1" gradientTransform="translate(0 1082) scale(1 -1)" gradientUnits="userSpaceOnUse">
      <stop offset="0" stop-color="#3acceb"/>
      <stop offset="1" stop-color="#e725c7"/>
    </linearGradient>
    <linearGradient id="linear-gradient9" x1="95.6" y1="321.1" x2="990" y2="321.1" gradientTransform="translate(0 1082) scale(1 -1)" gradientUnits="userSpaceOnUse">
      <stop offset="0" stop-color="#3acceb"/>
      <stop offset="1" stop-color="#e725c7"/>
    </linearGradient>
    <linearGradient id="linear-gradient10" x1="95.6" y1="321.1" x2="990" y2="321.1" gradientTransform="translate(0 1082) scale(1 -1)" gradientUnits="userSpaceOnUse">
      <stop offset="0" stop-color="#3acceb"/>
      <stop offset="1" stop-color="#e725c7"/>
    </linearGradient>
    <linearGradient id="linear-gradient11" x1="95.6" y1="321.2" x2="990" y2="321.2" gradientTransform="translate(0 1082) scale(1 -1)" gradientUnits="userSpaceOnUse">
      <stop offset="0" stop-color="#3acceb"/>
      <stop offset="1" stop-color="#e725c7"/>
    </linearGradient>
    <linearGradient id="linear-gradient12" x1="369.4" y1="643.4" x2="710.6" y2="643.4" gradientTransform="translate(0 1082) scale(1 -1)" gradientUnits="userSpaceOnUse">
      <stop offset="0" stop-color="#3acceb"/>
      <stop offset="1" stop-color="#e725c7"/>
    </linearGradient>
  </defs>
  <g>
    <g class="st13">
      <text class="st14" transform="translate(86 797.1)"><tspan x="0" y="0">F</tspan></text>
      <text class="st12" transform="translate(859.5 797.1)"><tspan x="0" y="0">R</tspan></text>
      <text class="st15" transform="translate(935.7 797.1)"><tspan x="0" y="0">S</tspan></text>
    </g>
    <g>
      <path class="st16" d="M104.8,797.1h-9.2v-72.4h42.3v8h-33.1v25.1h30.6v8h-30.6v31.3h0Z"/>
      <path class="st1" d="M186.4,724.7l25.2,72.4h-10.1l-7.3-21.5h-27.8l-7.1,21.5h-9.3l24.4-72.4h12ZM180.3,733.1h-.1l-11.6,34.6h23.3l-11.6-34.6h0Z"/>
      <path class="st0" d="M246.4,797.1h-9.2v-72.4h9.2v72.4Z"/>
      <path class="st3" d="M291.7,797.1v-64.4h-21.9v-8h52.8v8h-21.7v64.4h-9.2,0Z"/>
      <path class="st8" d="M399.6,797.1h-9.2v-32.8h-35.2v32.8h-9.2v-72.4h9.2v31.3h35.2v-31.3h9.2v72.4Z"/>
      <path class="st7" d="M475,797.1h-9.2v-72.4h42.3v8h-33.1v25.1h30.6v8h-30.6v31.3h0Z"/>
      <path class="st4" d="M528.3,760.9c0-21.5,11.9-37.5,34-37.5s31.9,16,31.9,36.1-11.3,38.8-33.4,38.8-32.5-15.7-32.5-37.4h0ZM584.8,760.4c0-19.1-9-28.9-22.8-28.9s-24.1,10-24.1,29.3,9.4,29.4,23.4,29.4,23.5-9.3,23.5-29.8h0Z"/>
      <path class="st6" d="M673.3,797.1h-10l-16.6-30.1h-16.3v30.1h-9.1v-72.4h24.8c18,0,23.4,9.8,23.4,19.7s-5.6,17.3-14,20.2l17.8,32.5h0ZM644,759.3c9.5,0,16.1-3.2,16.1-14.4s-6.6-12.4-17-12.4h-12.6v26.8h13.5Z"/>
      <path class="st5" d="M767.5,797.1h-8.7v-62.5h0l-21.9,62.5h-9.6l-21.5-62.6h-.2v62.6h-8.5v-72.4h14l21.3,61.6h0l21.3-61.6h13.8v72.4h0Z"/>
      <path class="st2" d="M808.3,789.1h34.4v8h-43.6v-72.4h42.3v8h-33.1v23.9h31.1v8h-31.1v24.5h0Z"/>
      <path class="st11" d="M921.2,797.1h-10l-16.6-30.1h-16.3v30.1h-9.1v-72.4h24.8c18,0,23.4,9.8,23.4,19.7s-5.6,17.3-14,20.2l17.8,32.5h0ZM891.8,759.3c9.5,0,16.1-3.2,16.1-14.4s-6.6-12.4-17-12.4h-12.6v26.8h13.5Z"/>
      <path class="st10" d="M950.5,742.5c0,8.8,8.2,11.3,17.3,14,10.6,3.1,22.1,6.5,22.1,20.5s-12.2,21.3-25.6,21.3-24.5-6-26.4-20.9l8.8-1.3c1.7,7.7,5.3,14.4,17.7,14.4s16.1-2.6,16.1-12.2-8.1-11.4-17-13.9c-10.8-3-22.4-6.1-22.4-21s10.4-20,24.4-20,22.3,4.9,23.8,20.4l-8.6,1c-1.1-6.9-3.9-13.6-15.1-13.6s-15.1,4.9-15.1,11.3Z"/>
    </g>
  </g>
  <path class="st9" d="M433.5,626.2c2.6-4.9-7.1,2.3-5.6-23.3s25.2-104.3,36.5-136.8c41.8-1.1,88.1-8.1,92.6-19.8-33.9,3.8-60.6.4-88.9,0,4.5-21.5,34.5-99.7,39.2-110.6,59.8-13.7,156.5-14.6,203.3-11.7-24.8-35-189.4-13.2-197.3-12.4,11.3-31.6,22.6-53.8,19.6-61-2.3,5.4-26.9,15.6-45.6,61.7-28.6,7.9-107.2,16.2-117,48.2-1,3-2.5,13.2,3.8,12.3,14.7-2.1-18.5-17.1,105.7-34-3.9,14.5-39.6,107.7-39.9,108.4-19.7,1.6-59.1-1.6-65.4,21.8-1,3.9,2.1,15.9,3.4,12.9,6.6-14.5,21.5-13.4,57.9-15.5-16.6,50.5-33.5,104.3-36.5,131-4.1,24.3,31,31.6,34.3,29h0Z"/>
</svg>